<?xml version="1.0" standalone="no"?>
<!DOCTYPE svg PUBLIC "-//W3C//DTD SVG 20010904//EN" "http://www.w3.org/TR/2001/REC-SVG-20010904/DTD/svg10.dtd">
<!-- Created using Krita: http://krita.org -->
<svg xmlns="http://www.w3.org/2000/svg" 
    xmlns:xlink="http://www.w3.org/1999/xlink"
    xmlns:krita="http://krita.org/namespaces/svg/krita"
    xmlns:sodipodi="http://sodipodi.sourceforge.net/DTD/sodipodi-0.dtd"
    width="737.28pt"
    height="737.28pt"
    viewBox="0 0 737.28 737.28">
<defs>
  <radialGradient id="gradient0" gradientUnits="objectBoundingBox" cx="0.5" cy="0.5" fx="0.5" fy="0.5" r="1.4142135624" spreadMethod="pad">
   <stop stop-color="#f8f1f1" offset="0.13127413392" stop-opacity="1"/>
   <stop stop-color="#555555" offset="0.38223937154" stop-opacity="1"/>
  </radialGradient>
  <radialGradient id="gradient1" gradientUnits="objectBoundingBox" cx="0.5" cy="0.5" fx="0.5" fy="0.5" r="1.4142135624" spreadMethod="pad">
   <stop stop-color="#f8f1f1" offset="0.13127413392" stop-opacity="1"/>
   <stop stop-color="#555555" offset="0.38223937154" stop-opacity="1"/>
  </radialGradient>
 </defs>
<rect id="shape0" transform="matrix(1.0000000498 0 0 0.99999992352 189.8573023 186.70244223)" fill="#444444" fill-rule="evenodd" width="9.1859123871" height="9.330031988"/><rect id="shape1" transform="matrix(1.0000000498 0 0 0.99999992352 190.57730231 186.67247422)" fill="#9b9595" fill-rule="evenodd" width="8.64" height="8.64"/><rect id="shape01" transform="matrix(0.56712152818 0 0 0.56712146782 222.60558956 447.45387246)" opacity="0.3" fill="#444444" fill-rule="evenodd" width="9.1859123871" height="9.330031988"/><rect id="shape11" transform="matrix(0.56712152818 0 0 0.56712146782 223.01391707 447.43687695)" opacity="0.3" fill="#9b9595" fill-rule="evenodd" width="8.64" height="8.64"/><rect id="shape02" transform="matrix(1.9227042631 0 0 1.9227041075 171.86332407 293.91914691)" opacity="0.3" fill="#444444" fill-rule="evenodd" width="9.1859123871" height="9.330031988"/><rect id="shape12" transform="matrix(1.9227042631 0 0 1.9227041075 173.24767113 293.86152727)" opacity="0.3" fill="#9b9595" fill-rule="evenodd" width="8.64" height="8.64"/><rect id="shape03" transform="matrix(1.0000000894 0 0 1.0000000426 159.58831482 232.94937455)" opacity="0.3" fill="#444444" fill-rule="evenodd" width="9.1859123871" height="9.330031988"/><rect id="shape13" transform="matrix(1.0000000894 0 0 1.0000000426 160.30831487 232.91940653)" opacity="0.3" fill="#9b9595" fill-rule="evenodd" width="8.64" height="8.64"/><rect id="shape04" transform="matrix(1.0000001048 0 0 1.0000000576 230.49352766 136.07227342)" opacity="0.3" fill="#444444" fill-rule="evenodd" width="9.1859123871" height="9.330031988"/><rect id="shape14" transform="matrix(1.0000001048 0 0 1.0000000576 231.21352773 136.0423054)" opacity="0.3" fill="#9b9595" fill-rule="evenodd" width="8.64" height="8.64"/><rect id="shape05" transform="matrix(1.0000000885 0 0 1.000000107 264.37619399 43.84774512)" opacity="0.3" fill="#444444" fill-rule="evenodd" width="9.1859123871" height="9.330031988"/><rect id="shape15" transform="matrix(1.0000000885 0 0 1.000000107 265.09619405 43.817777101)" opacity="0.3" fill="#9b9595" fill-rule="evenodd" width="8.64" height="8.64"/><rect id="shape06" transform="matrix(2.3458746211 0 0 2.345874594 254.54472153 81.240600731)" opacity="0.3" fill="#444444" fill-rule="evenodd" width="9.1859123871" height="9.330031988"/><rect id="shape16" transform="matrix(2.3458746211 0 0 2.345874594 253.35375248 79.730300135)" opacity="0.3" fill="#d9d9d9" fill-rule="evenodd" width="8.64" height="8.64"/><rect id="shape07" transform="matrix(0.5454134162 0 0 0.54541345064 282.08601381 185.08313581)" opacity="0.3" fill="#444444" fill-rule="evenodd" width="9.1859123871" height="9.330031988"/><rect id="shape17" transform="matrix(0.5454134162 0 0 0.54541345064 282.49462137 185.06679085)" opacity="0.3" fill="#9b9595" fill-rule="evenodd" width="8.64" height="8.64"/><rect id="shape08" transform="matrix(0.66944715894 0 0 0.66944725476 324.1893401 28.770797542)" opacity="0.3" fill="#444444" fill-rule="evenodd" width="9.1859123871" height="9.330031988"/><rect id="shape18" transform="matrix(0.66944715894 0 0 0.66944725476 324.67134205 28.750735539)" opacity="0.3" fill="#333333" fill-rule="evenodd" width="8.64" height="8.64"/><rect id="shape09" transform="matrix(1.0000000398 0 0 1.0000002339 418.02925786 63.985693954)" opacity="0.3" fill="#444444" fill-rule="evenodd" width="9.1859123871" height="9.330031988"/><rect id="shape19" transform="matrix(1.0000000398 0 0 1.0000002339 418.74925789 63.955725934)" opacity="0.3" fill="#9b9595" fill-rule="evenodd" width="8.64" height="8.64"/><rect id="shape010" transform="matrix(1.00000007 0 0 1.0000002508 456.3679688 164.4126101)" opacity="0.3" fill="#444444" fill-rule="evenodd" width="9.1859123871" height="9.330031988"/><rect id="shape110" transform="matrix(1.00000007 0 0 1.0000002508 456.00796922 164.38264208)" opacity="0.3" fill="#333333" fill-rule="evenodd" width="8.64" height="8.64"/><rect id="shape011" transform="matrix(1.0000000868 0 0 1.000000269 427.81228959 203.90196621)" opacity="0.3" fill="#444444" fill-rule="evenodd" width="9.1859123871" height="9.330031988"/><rect id="shape111" transform="matrix(1.0000000868 0 0 1.000000269 428.53228963 203.87199819)" opacity="0.3" fill="#9b9595" fill-rule="evenodd" width="8.64" height="8.64"/><rect id="shape012" transform="matrix(0.52361860827 0 0 0.52361870627 518.75633302 275.64438344)" opacity="0.3" fill="#444444" fill-rule="evenodd" width="9.1859123871" height="9.330031988"/><rect id="shape112" transform="matrix(0.52361860827 0 0 0.52361870627 519.13333841 275.62869163)" opacity="0.3" fill="#9b9595" fill-rule="evenodd" width="8.64" height="8.64"/><rect id="shape013" transform="matrix(1.000000118 0 0 1.0000002955 491.28704409 302.04988404)" opacity="0.3" fill="#444444" fill-rule="evenodd" width="9.1859123871" height="9.330031988"/><rect id="shape113" transform="matrix(1.000000118 0 0 1.0000002955 492.00704416 302.01991602)" opacity="0.3" fill="#9b9595" fill-rule="evenodd" width="8.64" height="8.64"/><rect id="shape014" transform="matrix(1.0000001379 0 0 1.0000002601 463.06220137 588.41061854)" opacity="0.3" fill="#444444" fill-rule="evenodd" width="9.1859123871" height="9.330031988"/><rect id="shape114" transform="matrix(1.0000001379 0 0 1.0000002601 463.78220145 588.38065052)" opacity="0.3" fill="#9b9595" fill-rule="evenodd" width="8.64" height="8.64"/><rect id="shape015" transform="matrix(1.0000001441 0 0 1.0000002136 442.4789755 560.30624527)" opacity="0.3" fill="#444444" fill-rule="evenodd" width="5.6666489692" height="6.0096117043"/><rect id="shape115" transform="matrix(1.0000001441 0 0 1.0000002136 443.19897559 560.64839976)" opacity="0.3" fill="#9b9595" fill-rule="evenodd" width="4.9474572745" height="4.9474572745"/><rect id="shape016" transform="matrix(1.0000001678 0 0 1.0000002506 461.13388196 528.11010441)" opacity="0.3" fill="#444444" fill-rule="evenodd" width="9.1859123871" height="9.330031988"/><rect id="shape116" transform="matrix(1.0000001678 0 0 1.0000002506 461.85388207 528.08013641)" opacity="0.3" fill="#9b9595" fill-rule="evenodd" width="8.64" height="8.64"/><rect id="shape017" transform="matrix(1.0000001932 0 0 1.0000002461 430.46081445 509.99787489)" opacity="0.3" fill="#444444" fill-rule="evenodd" width="9.1859123871" height="9.330031988"/><rect id="shape117" transform="matrix(1.0000001932 0 0 1.0000002461 431.18081457 509.96790689)" opacity="0.3" fill="#9b9595" fill-rule="evenodd" width="8.64" height="8.64"/><rect id="shape018" transform="matrix(2.3533313124 0 0 2.3533315006 421.59720946 480.89863949)" opacity="0.3" fill="#444444" fill-rule="evenodd" width="9.1859123871" height="9.330031988"/><rect id="shape118" transform="matrix(2.3533313124 0 0 2.3533315006 421.85160856 479.38811544)" opacity="0.3" fill="#d9d9d9" fill-rule="evenodd" width="8.64" height="8.64"/><rect id="shape019" transform="matrix(0.79623919548 0 0 0.79623927755 298.90853569 483.9025928)" opacity="0.3" fill="#444444" fill-rule="evenodd" width="9.1859123871" height="9.330031988"/><rect id="shape119" transform="matrix(0.79623919548 0 0 0.79623927755 299.4818279 483.87873109)" opacity="0.3" fill="#9b9595" fill-rule="evenodd" width="8.64" height="8.64"/><rect id="shape020" transform="matrix(1.000000118 0 0 1.0000002599 281.16082119 510.69884209)" opacity="0.3" fill="#444444" fill-rule="evenodd" width="9.1859123871" height="9.330031988"/><rect id="shape120" transform="matrix(1.000000118 0 0 1.0000002599 281.88082125 510.66887407)" opacity="0.3" fill="#9b9595" fill-rule="evenodd" width="8.64" height="8.64"/><rect id="shape021" transform="matrix(1.0000001314 0 0 1.0000002758 304.80778499 546.6268196)" opacity="0.3" fill="#444444" fill-rule="evenodd" width="9.1859123871" height="9.330031988"/><rect id="shape121" transform="matrix(1.0000001314 0 0 1.0000002758 305.52778506 546.59685158)" opacity="0.3" fill="#9b9595" fill-rule="evenodd" width="8.64" height="8.64"/><rect id="shape022" transform="matrix(1.4400290289 0 0 1.4400293105 272.67899513 545.64806619)" opacity="0.3" fill="#444444" fill-rule="evenodd" width="9.1859123871" height="9.330031988"/><rect id="shape122" transform="matrix(1.4400290289 0 0 1.4400293105 273.715816 545.60491138)" opacity="0.3" fill="#333333" fill-rule="evenodd" width="8.64" height="8.64"/><rect id="shape023" transform="matrix(1.0000001285 0 0 1.0000003572 250.2566189 571.24745287)" opacity="0.3" fill="#444444" fill-rule="evenodd" width="9.1859123871" height="9.330031988"/><rect id="shape123" transform="matrix(1.0000001285 0 0 1.0000003572 250.97661896 571.21748484)" opacity="0.3" fill="#9b9595" fill-rule="evenodd" width="8.64" height="8.64"/><rect id="shape024" transform="matrix(1.0000001116 0 0 1.0000003522 281.46703436 602.50101331)" opacity="0.3" fill="#444444" fill-rule="evenodd" width="9.1859123871" height="9.330031988"/><rect id="shape124" transform="matrix(1.0000001116 0 0 1.0000003522 282.18703441 602.47104528)" opacity="0.3" fill="#9b9595" fill-rule="evenodd" width="8.64" height="8.64"/><rect id="shape025" transform="matrix(1.0000001258 0 0 1.0000003626 220.56382129 571.04642705)" opacity="0.3" fill="#444444" fill-rule="evenodd" width="9.1859123871" height="9.330031988"/><rect id="shape125" transform="matrix(1.0000001258 0 0 1.0000003626 221.28382136 571.01645902)" opacity="0.3" fill="#9b9595" fill-rule="evenodd" width="8.64" height="8.64"/><rect id="shape026" transform="matrix(1.0000001433 0 0 1.0000003382 167.94167084 538.15794598)" opacity="0.3" fill="#444444" fill-rule="evenodd" width="9.1859123871" height="9.330031988"/><rect id="shape126" transform="matrix(1.0000001433 0 0 1.0000003382 168.66167093 538.12797795)" opacity="0.3" fill="#9b9595" fill-rule="evenodd" width="8.64" height="8.64"/><rect id="shape027" transform="matrix(0.44709742614 0 0 0.44709753771 158.88003473 509.74032652)" opacity="0.3" fill="#444444" fill-rule="evenodd" width="9.1859123871" height="9.330031988"/><rect id="shape127" transform="matrix(0.44709742614 0 0 0.44709753771 159.20194485 509.72692792)" opacity="0.3" fill="#9b9595" fill-rule="evenodd" width="8.64" height="8.64"/><rect id="shape028" transform="matrix(1.6491769733 0 0 1.6491774793 164.94691271 453.43983886)" opacity="0.3" fill="#444444" fill-rule="evenodd" width="9.1859123871" height="9.330031988"/><rect id="shape128" transform="matrix(1.6491769733 0 0 1.6491774793 166.13432011 453.39041628)" opacity="0.3" fill="#9b9595" fill-rule="evenodd" width="8.64" height="8.64"/><rect id="shape029" transform="matrix(1.0000000606 0 0 1.0000004154 241.20711199 423.46355638)" opacity="0.3" fill="#444444" fill-rule="evenodd" width="9.1859123871" height="9.330031988"/><rect id="shape129" transform="matrix(1.0000000606 0 0 1.0000004154 241.92711202 423.43358835)" opacity="0.3" fill="#9b9595" fill-rule="evenodd" width="8.64" height="8.64"/><rect id="shape030" transform="matrix(1.0000000553 0 0 1.0000004008 138.4989005 452.81804926)" opacity="0.3" fill="#444444" fill-rule="evenodd" width="9.1859123871" height="9.330031988"/><rect id="shape130" transform="matrix(1.0000000553 0 0 1.0000004008 139.21890053 452.78808123)" opacity="0.3" fill="#9b9595" fill-rule="evenodd" width="8.64" height="8.64"/><rect id="shape031" transform="matrix(1.9844770776 0 0 1.9844776327 104.2191731 434.5179431)" opacity="0.3" fill="#444444" fill-rule="evenodd" width="9.1859123871" height="9.330031988"/><rect id="shape131" transform="matrix(1.9844770776 0 0 1.9844776327 105.64799658 434.45847228)" opacity="0.3" fill="#9b9595" fill-rule="evenodd" width="8.64" height="8.64"/><rect id="shape032" transform="matrix(0.72427893746 0 0 0.72427917192 138.97792539 547.37184758)" opacity="0.3" fill="#444444" fill-rule="evenodd" width="9.1859123871" height="9.330031988"/><rect id="shape132" transform="matrix(0.72427893746 0 0 0.72427917192 139.49940622 547.35014237)" opacity="0.3" fill="#9b9595" fill-rule="evenodd" width="8.64" height="8.64"/><rect id="shape033" transform="matrix(3.7694099697 0 0 3.7694109325 207.59983965 614.6835704)" opacity="0.3" fill="#444444" fill-rule="evenodd" width="9.1859123871" height="9.330031988"/><rect id="shape133" transform="matrix(3.7694099697 0 0 3.7694109325 210.31381481 614.57060868)" opacity="0.3" fill="#9b9595" fill-rule="evenodd" width="8.64" height="8.64"/><rect id="shape034" transform="matrix(1.0000000643 0 0 1.0000003021 157.83291435 615.1942006)" opacity="0.3" fill="#444444" fill-rule="evenodd" width="9.1859123871" height="9.330031988"/><rect id="shape134" transform="matrix(1.0000000643 0 0 1.0000003021 158.55291439 610.73005666)" opacity="0.3" fill="#9b9595" fill-rule="evenodd" width="13.074174594" height="13.074174594"/><rect id="shape035" transform="matrix(1.9446492091 0 0 1.9446496333 572.46826335 604.07778988)" opacity="0.3" fill="#444444" fill-rule="evenodd" width="9.1859123871" height="9.330031988"/><rect id="shape135" transform="matrix(1.9446492091 0 0 1.9446496333 573.8684108 604.0195126)" opacity="0.3" fill="#9b9595" fill-rule="evenodd" width="8.64" height="8.64"/><rect id="shape036" transform="matrix(1.0000000551 0 0 1.0000003025 584.32973923 521.01060537)" opacity="0.3" fill="#444444" fill-rule="evenodd" width="9.1859123871" height="9.330031988"/><rect id="shape136" transform="matrix(1.0000000551 0 0 1.0000003025 585.04973927 520.98063735)" opacity="0.3" fill="#9b9595" fill-rule="evenodd" width="8.64" height="8.64"/><rect id="shape037" transform="matrix(2.3241298274 0 0 2.3696302391 595.42889628 486.41031596)" opacity="0.3" fill="#444444" fill-rule="evenodd" width="9.1859123871" height="9.330031988"/><rect id="shape137" transform="matrix(2.3241298274 0 0 2.3696302391 597.10226977 486.33930285)" opacity="0.3" fill="#9b9595" fill-rule="evenodd" width="8.64" height="8.64"/><rect id="shape038" transform="matrix(3.0503202433 0 0 3.0503209668 570.87687966 447.69200883)" opacity="0.3" fill="#444444" fill-rule="evenodd" width="9.1859123871" height="9.330031988"/><rect id="shape138" transform="matrix(3.0503202433 0 0 3.0503209668 573.07311028 447.60059678)" opacity="0.3" fill="#9b9595" fill-rule="evenodd" width="8.64" height="8.64"/><rect id="shape039" transform="matrix(0.55801568836 0 0 0.55801581082 526.52700102 448.50294223)" opacity="0.3" fill="#444444" fill-rule="evenodd" width="9.1859123871" height="9.330031988"/><rect id="shape139" transform="matrix(0.55801568836 0 0 0.55801581082 526.92877232 448.4862196)" opacity="0.3" fill="#9b9595" fill-rule="evenodd" width="8.64" height="8.64"/><rect id="shape040" transform="matrix(1.0000000048 0 0 1.0000002361 569.65600831 423.44156438)" opacity="0.3" fill="#444444" fill-rule="evenodd" width="9.1859123871" height="9.330031988"/><rect id="shape140" transform="matrix(1.0000000048 0 0 1.0000002361 570.37600835 423.41159638)" opacity="0.3" fill="#9b9595" fill-rule="evenodd" width="8.64" height="8.64"/><rect id="shape041" transform="matrix(0.41627810093 0 0 0.41627818786 634.71521594 448.28630551)" opacity="0.3" fill="#444444" fill-rule="evenodd" width="9.1859123871" height="9.330031988"/><rect id="shape141" transform="matrix(0.41627810093 0 0 0.41627818786 635.01493618 448.27383048)" opacity="0.3" fill="#9b9595" fill-rule="evenodd" width="8.64" height="8.64"/><rect id="shape042" transform="matrix(1.0000000011 0 0 1.0000001991 667.7719606 411.45505927)" opacity="0.3" fill="#444444" fill-rule="evenodd" width="9.1859123871" height="9.330031988"/><rect id="shape142" transform="matrix(1.0000000011 0 0 1.0000001991 668.49196061 411.42509125)" opacity="0.3" fill="#9b9595" fill-rule="evenodd" width="8.64" height="8.64"/><rect id="shape043" transform="matrix(3.1345435506 0 0 3.134544232 487.28640075 415.64132733)" opacity="0.3" fill="#444444" fill-rule="evenodd" width="9.1859123871" height="9.330031988"/><rect id="shape143" transform="matrix(3.1345435506 0 0 3.134544232 488.10327277 415.54739128)" opacity="0.3" fill="#d9d9d9" fill-rule="evenodd" width="8.64" height="8.64"/><rect id="shape044" transform="matrix(1.000000133 0 0 1.0000001214 304.59967225 57.467971065)" opacity="0.3" fill="#444444" fill-rule="evenodd" width="9.1859123871" height="9.330031988"/><rect id="shape144" transform="matrix(1.000000133 0 0 1.0000001214 305.31967235 57.438003048)" opacity="0.3" fill="#9b9595" fill-rule="evenodd" width="8.64" height="8.64"/><rect id="shape045" transform="matrix(0.51269429788 0 0 0.53787166171 394.89801965 28.276904034)" opacity="0.3" fill="#444444" fill-rule="evenodd" width="9.1859123871" height="9.330031988"/><rect id="shape145" transform="matrix(0.51269429788 0 0 0.53787166171 395.26715955 28.260785089)" opacity="0.3" fill="#9b9595" fill-rule="evenodd" width="8.64" height="8.64"/><rect id="shape046" transform="matrix(1.0000000714 0 0 0.99999995072 307.74662683 206.06171536)" opacity="0.3" fill="#444444" fill-rule="evenodd" width="9.1859123871" height="9.330031988"/><rect id="shape146" transform="matrix(1.0000000714 0 0 0.99999995072 308.46662687 206.03174735)" opacity="0.3" fill="#9b9595" fill-rule="evenodd" width="8.64" height="8.64"/><rect id="shape0111" transform="matrix(1.0000000964 0 0 1.0000001772 265.06565357 209.77237749)" opacity="0.3" fill="#444444" fill-rule="evenodd" width="9.1859123871" height="9.330031988"/><rect id="shape1111" transform="matrix(1.0000000964 0 0 1.0000001772 265.78565363 209.74240949)" opacity="0.3" fill="#9b9595" fill-rule="evenodd" width="8.64" height="8.64"/><rect id="shape047" transform="matrix(1.1960603608 0 0 1.1960601516 294.67030665 150.90596384)" opacity="0.3" fill="#444444" fill-rule="evenodd" width="9.1859123871" height="9.330031988"/><rect id="shape147" transform="matrix(1.1960603608 0 0 1.1960601516 294.49647048 150.87012029)" opacity="0.3" fill="#333333" fill-rule="evenodd" width="8.64" height="8.64"/><rect id="shape0111" transform="matrix(1.7416307665 0 0 1.7416308127 245.04766908 149.52643646)" opacity="0.3" fill="#444444" fill-rule="evenodd" width="9.1859123871" height="9.330031988"/><rect id="shape1111" transform="matrix(1.7416307665 0 0 1.7416308127 244.86164383 148.03424386)" opacity="0.3" fill="#d9d9d9" fill-rule="evenodd" width="8.64" height="8.64"/><rect id="shape048" transform="matrix(2.1515608979 0 0 2.1515613005 425.83791324 159.33412998)" opacity="0.3" fill="#444444" fill-rule="evenodd" width="9.1859123871" height="9.330031988"/><rect id="shape148" transform="matrix(2.1515608979 0 0 2.1515613005 427.38703707 159.26965198)" opacity="0.3" fill="#9b9595" fill-rule="evenodd" width="8.64" height="8.64"/><rect id="shape049" transform="matrix(0.7032217731 0 0 0.70322187308 416.65285949 251.27839893)" opacity="0.3" fill="#444444" fill-rule="evenodd" width="9.1859123871" height="9.330031988"/><rect id="shape149" transform="matrix(0.7032217731 0 0 0.70322187308 417.15917915 251.25732476)" opacity="0.3" fill="#9b9595" fill-rule="evenodd" width="8.64" height="8.64"/><rect id="shape050" transform="matrix(1.9950517436 0 0 1.9950519138 452.10608954 195.24717796)" opacity="0.3" fill="#444444" fill-rule="evenodd" width="9.1859123871" height="9.330031988"/><rect id="shape150" transform="matrix(1.9950517436 0 0 1.9950519138 453.54252676 195.18739025)" opacity="0.3" fill="#d9d9d9" fill-rule="evenodd" width="8.64" height="8.64"/><rect id="shape051" transform="matrix(1.0000001363 0 0 1.0000000348 566.14905041 208.66251452)" opacity="0.3" fill="#444444" fill-rule="evenodd" width="9.1859123871" height="9.330031988"/><rect id="shape151" transform="matrix(1.0000001363 0 0 1.0000000348 566.8690505 208.6325465)" opacity="0.3" fill="#9b9595" fill-rule="evenodd" width="8.64" height="8.64"/><rect id="shape0121" transform="matrix(1.00000012 0 0 1.0000000842 565.05534648 109.93215887)" opacity="0.3" fill="#444444" fill-rule="evenodd" width="9.1859123871" height="9.330031988"/><rect id="shape1121" transform="matrix(1.00000012 0 0 1.0000000842 565.77534656 109.90219085)" opacity="0.3" fill="#9b9595" fill-rule="evenodd" width="8.64" height="8.64"/><rect id="shape0211" transform="matrix(2.345874695 0 0 2.3458745405 579.48000862 154.43987269)" opacity="0.3" fill="#444444" fill-rule="evenodd" width="9.1859123871" height="9.330031988"/><rect id="shape1211" transform="matrix(2.345874695 0 0 2.3458745405 581.16903839 154.36957149)" opacity="0.3" fill="#9b9595" fill-rule="evenodd" width="8.64" height="8.64"/><rect id="shape0311" transform="matrix(0.54541343339 0 0 0.54541343821 621.29686486 257.34607342)" opacity="0.3" fill="#444444" fill-rule="evenodd" width="9.1859123871" height="9.330031988"/><rect id="shape1311" transform="matrix(0.54541343339 0 0 0.54541343821 621.68956253 257.32972846)" opacity="0.3" fill="#9b9595" fill-rule="evenodd" width="8.64" height="8.64"/><rect id="shape0411" transform="matrix(1.5203355387 0 0 1.5203354385 511.42071534 85.070813773)" opacity="0.3" fill="#444444" fill-rule="evenodd" width="9.1859123871" height="9.330031988"/><rect id="shape1411" transform="matrix(1.5203355387 0 0 1.5203354385 512.51535693 85.025252338)" opacity="0.3" fill="#9b9595" fill-rule="evenodd" width="8.64" height="8.64"/><rect id="shape0511" transform="matrix(1.0000001029 0 0 0.99999992792 643.34124236 278.65195478)" opacity="0.3" fill="#444444" fill-rule="evenodd" width="9.1859123871" height="9.330031988"/><rect id="shape1511" transform="matrix(1.0000001029 0 0 0.99999992792 644.06124241 278.62198677)" opacity="0.3" fill="#9b9595" fill-rule="evenodd" width="8.64" height="8.64"/><rect id="shape0131" transform="matrix(1.0000001279 0 0 1.0000001544 600.66026756 282.362617)" opacity="0.3" fill="#444444" fill-rule="evenodd" width="9.1859123871" height="9.330031988"/><rect id="shape1131" transform="matrix(1.0000001279 0 0 1.0000001544 601.38026766 282.33264898)" opacity="0.3" fill="#9b9595" fill-rule="evenodd" width="8.64" height="8.64"/><rect id="shape061" transform="matrix(1.1960603985 0 0 1.1960601243 628.77303414 223.63736785)" opacity="0.3" fill="#444444" fill-rule="evenodd" width="9.1859123871" height="9.330031988"/><rect id="shape161" transform="matrix(1.1960603985 0 0 1.1960601243 629.6341976 223.60152431)" opacity="0.3" fill="#9b9595" fill-rule="evenodd" width="8.64" height="8.64"/><rect id="shape0112" transform="matrix(1.7416308214 0 0 1.741630773 574.82947725 222.65065137)" opacity="0.3" fill="#444444" fill-rule="evenodd" width="9.1859123871" height="9.330031988"/><rect id="shape1112" transform="matrix(1.7416308214 0 0 1.741630773 574.64345205 221.15845877)" opacity="0.3" fill="#d9d9d9" fill-rule="evenodd" width="8.64" height="8.64"/><rect id="shape052" transform="matrix(1.1102229364e-16 1.0000001363 -1.0000000348 -2.2204458729e-16 532.43145801 594.16080036)" opacity="0.3" fill="#444444" fill-rule="evenodd" width="9.1859123871" height="9.330031988"/><rect id="shape152" transform="matrix(1.1102229364e-16 1.0000001363 -1.0000000348 -2.2204458729e-16 532.46142603 594.88080045)" opacity="0.3" fill="#9b9595" fill-rule="evenodd" width="8.64" height="8.64"/><rect id="shape0141" transform="matrix(-1.1102229364e-16 1.00000012 -1.0000000842 0 505.56443561 130.73432124)" opacity="0.3" fill="#444444" fill-rule="evenodd" width="9.1859123871" height="9.330031988"/><rect id="shape1141" transform="matrix(-1.1102229364e-16 1.00000012 -1.0000000842 0 505.59440363 131.45432133)" opacity="0.3" fill="#9b9595" fill-rule="evenodd" width="8.64" height="8.64"/><rect id="shape0211" transform="matrix(0 1.9182336439 -1.9182335175 -3.6313397186e-16 463.21264682 114.24624207)" opacity="0.3" fill="#444444" fill-rule="evenodd" width="9.1859123871" height="9.330031988"/><rect id="shape1211" transform="matrix(0 1.9182336439 -1.9182335175 -3.6313397186e-16 463.27013247 115.6273703)" opacity="0.3" fill="#9b9595" fill-rule="evenodd" width="8.64" height="8.64"/><rect id="shape0311" transform="matrix(-5.5511146819e-17 0.54541343339 -0.54541343821 5.5511146819e-17 483.74789911 649.30861482)" opacity="0.3" fill="#444444" fill-rule="evenodd" width="9.1859123871" height="9.330031988"/><rect id="shape1311" transform="matrix(-5.5511146819e-17 0.54541343339 -0.54541343821 5.5511146819e-17 483.76424407 649.70131248)" opacity="0.3" fill="#9b9595" fill-rule="evenodd" width="8.64" height="8.64"/><rect id="shape0411" transform="matrix(0 1.0000001645 -1.0000000986 -1.1102229364e-16 491.94420996 171.31780044)" opacity="0.3" fill="#444444" fill-rule="evenodd" width="9.1859123871" height="9.330031988"/><rect id="shape1411" transform="matrix(0 1.0000001645 -1.0000000986 -1.1102229364e-16 491.97417798 171.67780053)" opacity="0.3" fill="#9b9595" fill-rule="evenodd" width="8.64" height="8.64"/><rect id="shape0511" transform="matrix(0 1.0000001029 -0.99999992792 0 462.44201774 671.35299231)" opacity="0.3" fill="#444444" fill-rule="evenodd" width="9.1859123871" height="9.330031988"/><rect id="shape1511" transform="matrix(0 1.0000001029 -0.99999992792 0 462.47198575 672.07299236)" opacity="0.3" fill="#333333" fill-rule="evenodd" width="8.64" height="8.64"/><rect id="shape0151" transform="matrix(2.2204458729e-16 1.0000001279 -1.0000001544 0 458.73135553 628.67201752)" opacity="0.3" fill="#444444" fill-rule="evenodd" width="9.1859123871" height="9.330031988"/><rect id="shape1151" transform="matrix(2.2204458729e-16 1.0000001279 -1.0000001544 0 458.76132355 629.39201761)" opacity="0.3" fill="#9b9595" fill-rule="evenodd" width="8.64" height="8.64"/><rect id="shape0611" transform="matrix(1.1102229364e-16 1.1960603985 -1.1960601243 0 517.45660468 656.78478409)" opacity="0.3" fill="#444444" fill-rule="evenodd" width="9.1859123871" height="9.330031988"/><rect id="shape1611" transform="matrix(1.1102229364e-16 1.1960603985 -1.1960601243 0 517.49244822 657.64594756)" opacity="0.3" fill="#9b9595" fill-rule="evenodd" width="8.64" height="8.64"/><rect id="shape01111" transform="matrix(0 1.7416308214 -1.741630773 0 518.44332116 602.84122722)" opacity="0.3" fill="#444444" fill-rule="evenodd" width="9.1859123871" height="9.330031988"/><rect id="shape11111" transform="matrix(0 1.7416308214 -1.741630773 0 517.05551497 604.0952014)" opacity="0.3" fill="#d9d9d9" fill-rule="evenodd" width="8.64" height="8.64"/><rect id="shape053" transform="matrix(4.4408917455e-16 -1.0000001177 1.0000000762 3.3306688093e-16 152.91884855 586.8200778)" opacity="0.3" fill="#444444" fill-rule="evenodd" width="9.1859123871" height="9.330031988"/><rect id="shape153" transform="matrix(4.4408917455e-16 -1.0000001177 1.0000000762 3.3306688093e-16 152.88888054 586.10007772)" opacity="0.3" fill="#9b9595" fill-rule="evenodd" width="8.64" height="8.64"/><rect id="shape0161" transform="matrix(4.4408917455e-16 -1.0000001014 1.0000001256 6.6613376184e-16 60.694318611 552.9983207)" opacity="0.3" fill="#444444" fill-rule="evenodd" width="9.1859123871" height="9.330031988"/><rect id="shape1161" transform="matrix(4.4408917455e-16 -1.0000001014 1.0000001256 6.6613376184e-16 60.664350592 552.2783206)" opacity="0.3" fill="#9b9595" fill-rule="evenodd" width="8.64" height="8.64"/><rect id="shape0221" transform="matrix(6.6613376184e-16 -2.3458746513 2.3458746376 6.6613376184e-16 100.02523422 584.14844615)" opacity="0.3" fill="#444444" fill-rule="evenodd" width="9.1859123871" height="9.330031988"/><rect id="shape1221" transform="matrix(6.6613376184e-16 -2.3458746513 2.3458746376 6.6613376184e-16 99.954933006 582.45941641)" opacity="0.3" fill="#333333" fill-rule="evenodd" width="8.64" height="8.64"/><rect id="shape0421" transform="matrix(2.2204458729e-16 -1.0000001459 1.00000014 3.3306688093e-16 74.314544833 512.7748426)" opacity="0.3" fill="#444444" fill-rule="evenodd" width="9.1859123871" height="9.330031988"/><rect id="shape1421" transform="matrix(2.2204458729e-16 -1.0000001459 1.00000014 3.3306688093e-16 74.284576814 512.0548425)" opacity="0.3" fill="#9b9595" fill-rule="evenodd" width="8.64" height="8.64"/><rect id="shape062" transform="matrix(5.5511146819e-16 -1.1960603762 1.1960601738 5.5511146819e-16 168.03486579 525.74889249)" opacity="0.3" fill="#444444" fill-rule="evenodd" width="9.1859123871" height="9.330031988"/><rect id="shape162" transform="matrix(5.5511146819e-16 -1.1960603762 1.1960601738 5.5511146819e-16 167.99902225 524.88772903)" opacity="0.3" fill="#9b9595" fill-rule="evenodd" width="8.64" height="8.64"/><rect id="shape01121" transform="matrix(1.6653344045e-15 -1.7416307889 1.7416308451 1.3322675238e-15 167.44096016 584.01336602)" opacity="0.3" fill="#444444" fill-rule="evenodd" width="9.1859123871" height="9.330031988"/><rect id="shape11121" transform="matrix(1.6653344045e-15 -1.7416307889 1.7416308451 1.3322675238e-15 167.38876694 582.75939186)" opacity="0.3" fill="#d9d9d9" fill-rule="evenodd" width="8.64" height="8.64"/><rect id="shape054" transform="matrix(1.0000001116 0 0 1.0000003447 204.24108818 261.49129357)" opacity="0.3" fill="#444444" fill-rule="evenodd" width="9.1859123871" height="9.330031988"/><rect id="shape154" transform="matrix(1.0000001116 0 0 1.0000003447 204.96108826 261.46132554)" opacity="0.3" fill="#9b9595" fill-rule="evenodd" width="8.64" height="8.64"/><rect id="shape0171" transform="matrix(1.0000001089 0 0 1.0000003501 174.54829109 261.29026775)" fill="#444444" fill-rule="evenodd" width="9.1859123871" height="9.330031988"/><rect id="shape1171" transform="matrix(1.0000001089 0 0 1.0000003501 174.18829156 261.26029972)" opacity="0.3" fill="#333333" fill-rule="evenodd" width="8.64" height="8.64"/><rect id="shape0231" transform="matrix(1.0000001264 0 0 1.0000003257 57.515967572 431.39418288)" opacity="0.3" fill="#444444" fill-rule="evenodd" width="9.1859123871" height="9.330031988"/><rect id="shape1231" transform="matrix(1.0000001264 0 0 1.0000003257 58.235967642 431.36421485)" opacity="0.3" fill="#9b9595" fill-rule="evenodd" width="8.64" height="8.64"/><rect id="shape0321" transform="matrix(0.44709741859 0 0 0.44709753213 109.68749217 194.18048753)" opacity="0.3" fill="#444444" fill-rule="evenodd" width="9.1859123871" height="9.330031988"/><rect id="shape1321" transform="matrix(0.44709741859 0 0 0.44709753213 110.00940231 194.1670889)" opacity="0.3" fill="#9b9595" fill-rule="evenodd" width="8.64" height="8.64"/><rect id="shape0431" transform="matrix(4.4408916705e-16 -1.0000001052 1.0000000593 3.3306687678e-16 115.54332043 284.26391887)" opacity="0.3" fill="#444444" fill-rule="evenodd" width="9.1859123871" height="9.330031988"/><rect id="shape1431" transform="matrix(4.4408916705e-16 -1.0000001052 1.0000000593 3.3306687678e-16 115.51335242 283.5439188)" opacity="0.3" fill="#9b9595" fill-rule="evenodd" width="8.64" height="8.64"/><rect id="shape063" transform="matrix(5.5511145881e-16 -1.1960603613 1.1960601536 5.5511146127e-16 89.136879461 214.98721622)" opacity="0.3" fill="#444444" fill-rule="evenodd" width="9.1859123871" height="9.330031988"/><rect id="shape163" transform="matrix(5.5511145881e-16 -1.1960603613 1.1960601536 5.5511146127e-16 89.101035924 214.12605277)" opacity="0.3" fill="#9b9595" fill-rule="evenodd" width="8.64" height="8.64"/><rect id="shape0113" transform="matrix(1.6653343764e-15 -1.7416307672 1.7416308157 1.3322675072e-15 130.59940593 287.33092197)" opacity="0.3" fill="#444444" fill-rule="evenodd" width="9.1859123871" height="9.330031988"/><rect id="shape1113" transform="matrix(1.6653343764e-15 -1.7416307672 1.7416308157 1.3322675072e-15 130.54721271 286.07694784)" opacity="0.3" fill="#9b9595" fill-rule="evenodd" width="8.64" height="8.64"/><rect id="shape055" transform="matrix(1.1102229395e-16 1.0000001733 -1.0000000375 -2.2204459551e-16 571.13147231 283.71841052)" opacity="0.3" fill="#444444" fill-rule="evenodd" width="9.1859123871" height="9.330031988"/><rect id="shape155" transform="matrix(1.1102229395e-16 1.0000001733 -1.0000000375 -2.2204459551e-16 571.16144032 284.43841064)" opacity="0.3" fill="#9b9595" fill-rule="evenodd" width="8.64" height="8.64"/><rect id="shape0114" transform="matrix(0 1.7416308859 -1.7416307778 0 556.60936127 286.52512243)" opacity="0.3" fill="#444444" fill-rule="evenodd" width="9.1859123871" height="9.330031988"/><rect id="shape1114" transform="matrix(0 1.7416308859 -1.7416307778 0 555.58155489 287.77909666)" opacity="0.3" fill="#333333" fill-rule="evenodd" width="8.64" height="8.64"/><rect id="shape056" transform="matrix(1.0000000928 0 0 1.0000001587 567.3749194 553.68112005)" opacity="0.3" fill="#444444" fill-rule="evenodd" width="9.1859123871" height="9.330031988"/><rect id="shape156" transform="matrix(1.0000000928 0 0 1.0000001587 568.09491948 553.65115203)" opacity="0.3" fill="#9b9595" fill-rule="evenodd" width="8.64" height="8.64"/><rect id="shape0181" transform="matrix(0.6694471618 0 0 0.66944728937 627.26243866 535.69142773)" opacity="0.3" fill="#444444" fill-rule="evenodd" width="9.1859123871" height="9.330031988"/><rect id="shape1181" transform="matrix(0.6694471618 0 0 0.66944728937 627.74444062 535.67136572)" opacity="0.3" fill="#9b9595" fill-rule="evenodd" width="8.64" height="8.64"/><rect id="shape0241" transform="matrix(1.0000001373 0 0 1.0000001731 607.5983975 567.30134672)" opacity="0.3" fill="#444444" fill-rule="evenodd" width="9.1859123871" height="9.330031988"/><rect id="shape1241" transform="matrix(1.0000001373 0 0 1.0000001731 608.31839759 567.27137869)" opacity="0.3" fill="#9b9595" fill-rule="evenodd" width="8.64" height="8.64"/><rect id="shape0331" transform="matrix(0.51269430007 0 0 0.53787168952 529.19468596 141.07482168)" opacity="0.3" fill="#444444" fill-rule="evenodd" width="9.1859123871" height="9.330031988"/><rect id="shape1331" transform="matrix(0.51269430007 0 0 0.53787168952 529.56382586 141.05870274)" opacity="0.3" fill="#9b9595" fill-rule="evenodd" width="8.64" height="8.64"/><rect id="shape057" transform="matrix(0.79623919733 0 0 0.79623925463 197.46097152 94.982874626)" opacity="0.3" fill="#444444" fill-rule="evenodd" width="9.1859123871" height="9.330031988"/><rect id="shape157" transform="matrix(0.79623919733 0 0 0.79623925463 198.03426372 94.959012918)" opacity="0.3" fill="#9b9595" fill-rule="evenodd" width="8.64" height="8.64"/><rect id="shape0191" transform="matrix(1.0000001203 0 0 1.0000002311 150.86800565 134.83394328)" opacity="0.3" fill="#444444" fill-rule="evenodd" width="9.1859123871" height="9.330031988"/><rect id="shape1191" transform="matrix(1.0000001203 0 0 1.0000002311 151.58800571 134.80397526)" opacity="0.3" fill="#9b9595" fill-rule="evenodd" width="8.64" height="8.64"/><rect id="shape0251" transform="matrix(1.0000001337 0 0 1.000000247 177.75750884 157.19971142)" opacity="0.3" fill="#444444" fill-rule="evenodd" width="9.1859123871" height="9.330031988"/><rect id="shape1251" transform="matrix(1.0000001337 0 0 1.000000247 178.47750891 157.1697434)" opacity="0.3" fill="#9b9595" fill-rule="evenodd" width="8.64" height="8.64"/><rect id="shape0341" transform="matrix(1.4400290323 0 0 1.4400292691 129.73648488 170.85688338)" opacity="0.3" fill="#444444" fill-rule="evenodd" width="9.1859123871" height="9.330031988"/><rect id="shape1341" transform="matrix(1.4400290323 0 0 1.4400292691 130.77330575 170.81372856)" opacity="0.3" fill="#9b9595" fill-rule="evenodd" width="8.64" height="8.64"/><rect id="shape058" transform="matrix(0.70322177148 0 0 0.70322188702 303.95351251 237.08434231)" opacity="0.3" fill="#444444" fill-rule="evenodd" width="9.1859123871" height="9.330031988"/><rect id="shape158" transform="matrix(0.70322177148 0 0 0.70322188702 304.45983218 237.06326815)" opacity="0.3" fill="#9b9595" fill-rule="evenodd" width="8.64" height="8.64"/><rect id="shape0351" transform="matrix(1.1102229364e-16 -0.54541342323 0.54541343461 1.1102229364e-16 191.71542295 445.76963834)" opacity="0.3" fill="#444444" fill-rule="evenodd" width="9.1859123871" height="9.330031988"/><rect id="shape1351" transform="matrix(1.1102229364e-16 -0.54541342323 0.54541343461 1.1102229364e-16 191.69907799 445.37694068)" opacity="0.3" fill="#9b9595" fill-rule="evenodd" width="8.64" height="8.64"/><rect id="shape0521" transform="matrix(-2.2204458729e-16 -1.0000000843 0.99999992132 0 213.34860643 427.32558761)" opacity="0.3" fill="#444444" fill-rule="evenodd" width="9.1859123871" height="9.330031988"/><rect id="shape1521" transform="matrix(-2.2204458729e-16 -1.0000000843 0.99999992132 0 213.31863842 426.60558757)" opacity="0.3" fill="#9b9595" fill-rule="evenodd" width="8.64" height="8.64"/><rect id="shape064" transform="matrix(-2.2204458729e-16 -1.1960603762 1.1960601164 -1.1102229364e-16 158.47518321 443.44659308)" opacity="0.3" fill="#444444" fill-rule="evenodd" width="9.1859123871" height="9.330031988"/><rect id="shape164" transform="matrix(-2.2204458729e-16 -1.1960603762 1.1960601164 -1.1102229364e-16 158.43933967 442.58542962)" opacity="0.3" fill="#9b9595" fill-rule="evenodd" width="8.64" height="8.64"/><rect id="shape059" transform="matrix(0.44709740762 0 0 0.44709755057 178.9978138 646.15391169)" opacity="0.3" fill="#444444" fill-rule="evenodd" width="9.1859123871" height="9.330031988"/><rect id="shape159" transform="matrix(0.44709740762 0 0 0.44709755057 179.31972391 646.14051306)" opacity="0.3" fill="#9b9595" fill-rule="evenodd" width="8.64" height="8.64"/><rect id="shape065" transform="matrix(5.551114452e-16 -1.1960604106 1.1960601243 5.5511148415e-16 192.55481925 671.31336631)" opacity="0.3" fill="#444444" fill-rule="evenodd" width="9.1859123871" height="9.330031988"/><rect id="shape165" transform="matrix(5.551114452e-16 -1.1960604106 1.1960601243 5.5511148415e-16 192.51897571 670.45220285)" opacity="0.3" fill="#9b9595" fill-rule="evenodd" width="8.64" height="8.64"/><rect id="shape060" transform="matrix(6.4358556787e-17 0.57969034473 -0.57969051076 6.435857522e-17 299.4127589 649.12442566)" opacity="0.3" fill="#444444" fill-rule="evenodd" width="9.1859123871" height="9.330031988"/><rect id="shape160" transform="matrix(6.4358556787e-17 0.57969034473 -0.57969051076 6.435857522e-17 299.43013108 649.54180269)" opacity="0.3" fill="#9b9595" fill-rule="evenodd" width="8.64" height="8.64"/><rect id="shape066" transform="matrix(1.550768662 0 0 1.5507683425 254.92720952 672.40964982)" opacity="0.3" fill="#444444" fill-rule="evenodd" width="9.1859123871" height="9.330031988"/><rect id="shape166" transform="matrix(1.550768662 0 0 1.5507683425 256.04376295 672.36317639)" opacity="0.3" fill="#9b9595" fill-rule="evenodd" width="8.64" height="8.64"/><rect id="shape0110" transform="matrix(-1.0481224533 0 0 -1.0481223659 58.924216666 305.58624783)" opacity="0.3" fill="#444444" fill-rule="evenodd" width="9.1859123871" height="9.330031988"/><rect id="shape1110" transform="matrix(-1.0481224533 0 0 -1.0481223659 58.169568493 305.61765798)" opacity="0.3" fill="#9b9595" fill-rule="evenodd" width="8.64" height="8.64"/><rect id="shape0361" transform="matrix(0 0.5373663175 -0.56375532711 0 39.37907361 326.85234652)" opacity="0.3" fill="#444444" fill-rule="evenodd" width="9.1859123871" height="9.330031988"/><rect id="shape1361" transform="matrix(0 0.5373663175 -0.56375532711 0 39.395968241 327.23925027)" opacity="0.3" fill="#9b9595" fill-rule="evenodd" width="8.64" height="8.64"/><rect id="shape01111" transform="matrix(1.1102229364e-16 -0.6698960306 0.6698959661 1.1102229364e-16 92.015413319 314.45061979)" opacity="0.3" fill="#444444" fill-rule="evenodd" width="9.1859123871" height="9.330031988"/><rect id="shape11111" transform="matrix(1.1102229364e-16 -0.6698960306 0.6698959661 1.1102229364e-16 91.995337864 313.96829464)" opacity="0.3" fill="#9b9595" fill-rule="evenodd" width="8.64" height="8.64"/><rect id="shape0371" transform="matrix(-0.34345181455 0 0 -0.36031806656 80.661231806 296.39354928)" opacity="0.3" fill="#444444" fill-rule="evenodd" width="9.1859123871" height="9.330031988"/><rect id="shape1371" transform="matrix(-0.34345181455 0 0 -0.36031806656 80.413946499 296.4043473)" opacity="0.3" fill="#9b9595" fill-rule="evenodd" width="8.64" height="8.64"/><rect id="shape0611" transform="matrix(1.1102229395e-16 1.0000001733 -1.0000000375 -2.2204459551e-16 107.87928997 250.40138778)" opacity="0.3" fill="#444444" fill-rule="evenodd" width="9.1859123871" height="9.330031988"/><rect id="shape1611" transform="matrix(1.1102229395e-16 1.0000001733 -1.0000000375 -2.2204459551e-16 107.90925798 251.1213879)" opacity="0.3" fill="#9b9595" fill-rule="evenodd" width="8.64" height="8.64"/><rect id="shape0115" transform="matrix(0 1.7416308859 -1.7416307778 0 78.820539722 250.66235883)" opacity="0.3" fill="#444444" fill-rule="evenodd" width="9.1859123871" height="9.330031988"/><rect id="shape1115" transform="matrix(0 1.7416308859 -1.7416307778 0 78.872732939 251.91633306)" opacity="0.3" fill="#9b9595" fill-rule="evenodd" width="8.64" height="8.64"/><rect id="shape0621" transform="matrix(0.68989435602 0 0 0.68989449154 244.30289321 303.48311486)" opacity="0.3" fill="#444444" fill-rule="evenodd" width="9.1859123871" height="9.330031988"/><rect id="shape1621" transform="matrix(0.68989435602 0 0 0.68989449154 244.79961713 303.4624401)" opacity="0.3" fill="#9b9595" fill-rule="evenodd" width="8.64" height="8.64"/><rect id="shape01121" transform="matrix(1.4843496163 0 0 1.4843499172 216.94829601 300.5515082)" opacity="0.3" fill="#444444" fill-rule="evenodd" width="9.1859123871" height="9.330031988"/><rect id="shape11121" transform="matrix(1.4843496163 0 0 1.4843499172 218.01702773 300.50702518)" opacity="0.3" fill="#9b9595" fill-rule="evenodd" width="8.64" height="8.64"/><rect id="shape0631" transform="matrix(3.1247517562 0 0 3.1247526392 106.52330031 491.21392008)" opacity="0.3" fill="#444444" fill-rule="evenodd" width="9.1859123871" height="9.330031988"/><rect id="shape1631" transform="matrix(3.1247517562 0 0 3.1247526392 107.33312216 489.68027808)" opacity="0.3" fill="#d9d9d9" fill-rule="evenodd" width="8.64" height="8.64"/><rect id="shape01131" transform="matrix(0.0069437669742 -1.0480994624 1.0480993615 0.0069437663056 459.59417182 73.910105063)" opacity="0.3" fill="#444444" fill-rule="evenodd" width="9.1859123871" height="9.330031988"/><rect id="shape11131" transform="matrix(0.0069437669742 -1.0480994624 1.0480993615 0.0069437663056 459.56776187 73.155265352)" opacity="0.3" fill="#9b9595" fill-rule="evenodd" width="8.64" height="8.64"/><rect id="shape0381" transform="matrix(-0.53735452327 -0.0035600291062 0.0037348552261 -0.56374296096 442.01692564 45.540856979)" opacity="0.3" fill="#444444" fill-rule="evenodd" width="9.1859123871" height="9.330031988"/><rect id="shape1381" transform="matrix(-0.53735452327 -0.0035600291062 0.0037348552261 -0.56374296096 441.62991845 45.555188016)" opacity="0.3" fill="#9b9595" fill-rule="evenodd" width="8.64" height="8.64"/><rect id="shape0391" transform="matrix(0.67823754189 0 0 0.67823771973 639.0804572 494.77935604)" opacity="0.3" fill="#444444" fill-rule="evenodd" width="9.1859123871" height="9.330031988"/><rect id="shape1391" transform="matrix(0.67823754189 0 0 0.67823771973 639.56878822 494.75903059)" opacity="0.3" fill="#9b9595" fill-rule="evenodd" width="8.64" height="8.64"/><rect id="shape067" transform="matrix(5.5511146865e-16 -1.1960603924 1.1960601748 5.551114757e-16 659.20310964 529.08277154)" opacity="0.3" fill="#444444" fill-rule="evenodd" width="9.1859123871" height="9.330031988"/><rect id="shape167" transform="matrix(5.5511146865e-16 -1.1960603924 1.1960601748 5.551114757e-16 659.1672661 528.22160807)" opacity="0.3" fill="#9b9595" fill-rule="evenodd" width="8.64" height="8.64"/><rect id="shape0312" transform="matrix(1.4400290578 0 0 1.4400293065 653.42890323 472.16373532)" opacity="0.3" fill="#444444" fill-rule="evenodd" width="9.1859123871" height="9.330031988"/><rect id="shape1312" transform="matrix(1.4400290578 0 0 1.4400293065 654.46572409 472.1205805)" opacity="0.3" fill="#333333" fill-rule="evenodd" width="8.64" height="8.64"/><rect id="shape0116" transform="matrix(2.8685993045e-15 -3.000022693 3.0000227085 2.2948795059e-15 122.03832885 237.77010834)" opacity="0.3" fill="#444444" fill-rule="evenodd" width="9.1859123871" height="9.330031988"/><rect id="shape1116" transform="matrix(2.8685993045e-15 -3.000022693 3.0000227085 2.2948795059e-15 120.50842474 234.17009262)" opacity="0.3" fill="#d9d9d9" fill-rule="evenodd" width="8.64" height="8.64"/><rect id="shape0641" transform="matrix(0.51269428656 0 0 0.53787164316 36.209667621 469.75611465)" opacity="0.3" fill="#444444" fill-rule="evenodd" width="9.1859123871" height="9.330031988"/><rect id="shape1641" transform="matrix(0.51269428656 0 0 0.53787164316 36.578807502 469.7399957)" opacity="0.3" fill="#9b9595" fill-rule="evenodd" width="8.64" height="8.64"/><rect id="shape0310" transform="matrix(-0.5373545114 -0.0035600289834 0.0037348551436 -0.56374294152 91.64764814 486.61509994)" opacity="0.3" fill="#444444" fill-rule="evenodd" width="9.1859123871" height="9.330031988"/><rect id="shape1310" transform="matrix(-0.5373545114 -0.0035600289834 0.0037348551436 -0.56374294152 91.260640961 486.62943098)" opacity="0.3" fill="#9b9595" fill-rule="evenodd" width="8.64" height="8.64"/><rect id="shape0651" transform="matrix(1.3794716721 0 0 1.3794720619 103.64664139 616.42765334)" opacity="0.3" fill="#444444" fill-rule="evenodd" width="9.1859123871" height="9.330031988"/><rect id="shape1651" transform="matrix(1.3794716721 0 0 1.3794720619 104.63986099 616.38631331)" opacity="0.3" fill="#9b9595" fill-rule="evenodd" width="8.64" height="8.64"/><path id="shape031" transform="matrix(-1.6633386586 0 0 -1.6633384483 710.96511592 711.217865)" fill="url(#gradient0)" stroke="#000000" stroke-opacity="0" stroke-width="1.44" stroke-linecap="square" stroke-linejoin="bevel" d="M231.436 157.367L231.994 69.8057L250.337 69.9139C212.116 9.12002 205.806 -1.20758e-6 205.806 1.26232e-13L161.664 69.8222L180.024 69.8222L179.236 157.367C157.706 178.93 177.526 159.462 155.817 181.026L69.1666 181.255L69.5133 161.753C13.9157 197.106 -1.20758e-6 205.958 7.85937e-14 205.958L69.4013 249.677L70.2466 233.455C104.957 233.378 121.107 233.302 155.817 233.226C178.903 254.208 156.833 234.188 179.241 254.637L179.966 342.157L162.06 342.31C203.944 409.839 205.806 412.218 205.806 412.218L250.431 342.165L232.071 342.165L231.711 256.448C254.259 233.593 232.876 254.79 255.095 233.226L343.007 231.965L343.205 249.856C400.724 212.551 350.682 243.775 411.68 205.958L341.927 161.405L341.927 179.765L255.095 181.026C232.494 157.968 253.764 179.276 231.436 157.367Z"/><path id="shape011" transform="matrix(1.1761579455 1.1761579455 -1.1761580082 1.1761580082 369.06209423 -4.5711463883)" fill="url(#gradient1)" stroke="#000000" stroke-opacity="0" stroke-width="1.44" stroke-linecap="square" stroke-linejoin="bevel" d="M143.34 34.25L132.689 38.4587L159.095 6.8779e-14C159.095 -7.65919e-7 162.851 5.51216 185.881 39.4849L174.713 34.1202C174.857 84.6828 174.401 119.509 174.463 141.178C199.405 141.219 235.68 141.279 283.286 141.36L278.461 130.065L318.48 159.496C285.993 181.013 314.582 161.098 278.204 185.871L284.543 174.675C233.141 172.725 195.936 173.474 174.065 174.401C174.387 198.97 173.559 236.733 173.38 285.335L184.095 281.364L159.046 317.999C138.485 287.605 155.001 312.196 133.21 280.026L143.385 284.089C143.664 232.445 141.649 196.31 141.768 174.177C116.79 173.9 80.7565 173.91 33.6682 174.206L38.8716 185.545L1.04916e-13 159.152C-7.65919e-7 159.152 4.0842 156.246 40.4243 131.814L33.988 143.44C107.216 143.565 68.3723 141.361 141.6 141.486C142.238 116.992 144.349 81.7368 143.34 34.25Z"/><path id="shape01" transform="matrix(0.99999992052 0 0 0.99999992052 326.05237062 280.22593551)" fill="none" stroke="#9b9595" stroke-opacity="0.65490196078" stroke-width="0.72" stroke-linecap="square" stroke-linejoin="miter" stroke-miterlimit="2" d="M0.0804237 0L0 43.8197"/><path id="shape012" transform="matrix(5.5511146819e-16 -0.99999991905 0.99999996156 2.2204458729e-16 271.88339003 324.04368338)" fill="none" stroke="#9b9595" stroke-opacity="0.65490196078" stroke-width="0.72" stroke-linecap="square" stroke-linejoin="miter" stroke-miterlimit="2" d="M0.0804237 0L0 54.4427"/><path id="shape013" transform="matrix(-5.5511146819e-16 0.99999994732 -0.99999994382 -3.3306688093e-16 453.90098826 323.59454465)" fill="none" stroke="#9b9595" stroke-opacity="0.65490196078" stroke-width="0.72" stroke-linecap="square" stroke-linejoin="miter" stroke-miterlimit="2" d="M0.0804237 0L0 41.0404"/><path id="shape021" transform="matrix(0.99999994232 0 0 0.99999998836 412.95042963 284.88037136)" fill="none" stroke="#9b9595" stroke-opacity="0.65490196078" stroke-width="0.72" stroke-linecap="square" stroke-linejoin="miter" stroke-miterlimit="2" d="M0 0L0.000527456 38.3848"/><path id="shape032" transform="matrix(-0.99999991301 0 0 -0.99999994382 412.53373051 453.96923951)" fill="none" stroke="#9b9595" stroke-opacity="0.65490196078" stroke-width="0.72" stroke-linecap="square" stroke-linejoin="miter" stroke-miterlimit="2" d="M0.0804237 0L0 43.8197"/><path id="shape041" transform="matrix(-1.7763566982e-15 0.99999994232 -0.99999995402 -1.3322675238e-15 466.7027107 410.15149062)" fill="none" stroke="#9b9595" stroke-opacity="0.65490196078" stroke-width="0.72" stroke-linecap="square" stroke-linejoin="miter" stroke-miterlimit="2" d="M0.0804237 0L0 54.4427"/><path id="shape0112" transform="matrix(5.5511146819e-16 -0.99999997066 0.99999993632 0 284.68511383 410.60062936)" fill="none" stroke="#9b9595" stroke-opacity="0.65490196078" stroke-width="0.72" stroke-linecap="square" stroke-linejoin="miter" stroke-miterlimit="2" d="M0.0804237 0L0 41.0404"/><path id="shape0212" transform="matrix(-0.99999993482 0 0 -1.0000000117 325.71609586 449.31480357)" fill="none" stroke="#9b9595" stroke-opacity="0.65490196078" stroke-width="0.72" stroke-linecap="square" stroke-linejoin="miter" stroke-miterlimit="2" d="M0.0804237 0L0 38.9882"/><path id="shape051" transform="matrix(0.99999996356 0 0 1.0000000298 413.23849113 289.00686327)" fill="none" stroke="#9b9595" stroke-opacity="0.65490196078" stroke-width="0.72" stroke-linecap="square" stroke-linejoin="miter" stroke-miterlimit="2" d="M0 0L0.000527456 34.1698"/><path id="shape02" transform="matrix(1.2766479566 0 0 1.2766479566 361.27661254 335.58897266)" fill="none" stroke="#464646" stroke-width="12.96" stroke-linecap="square" stroke-linejoin="bevel" d="M47.4162 0L3.41061e-13 2.27374e-13L0 48.4396L47.4162 48.4396"/><path id="shape11" transform="matrix(1.2766479566 0 0 1.2766479566 328.68918504 322.82207376)" fill="#ffffff" fill-rule="evenodd" stroke="#464646" stroke-width="7.2" stroke-linecap="square" stroke-linejoin="bevel" d="M15.1307 0L0 59.6929"/><rect id="shape2" transform="matrix(1.2766479566 0 0 1.2766479566 307.33827064 391.40686778)" fill="#464646" fill-rule="evenodd" width="8.2786933737" height="8.2786933737"/>
</svg>
